/* XPM */
static char * bush_xpm[] = {
"64 64 5 1",
" 	c None",
".	c #0B8A8F",
"+	c #1EBC73",
"@	c #91DB69",
"#	c #0B5E65",
"                                                                ",
"                                                                ",
"                                                                ",
"                                                                ",
"                        ................                        ",
"                        ................                        ",
"                        ................                        ",
"                        ................                        ",
"                ........++++@@@@@@@@++++........                ",
"                ........++++@@@@@@@@++++........                ",
"                ........++++@@@@@@@@++++........                ",
"                ........++++@@@@@@@@++++........                ",
"            ....++++@@@@@@@@@@@@@@@@@@@@@@@@++++....            ",
"            ....++++@@@@@@@@@@@@@@@@@@@@@@@@++++....            ",
"            ....++++@@@@@@@@@@@@@@@@@@@@@@@@++++....            ",
"            ....++++@@@@@@@@@@@@@@@@@@@@@@@@++++....            ",
"        ....++++@@@@++++@@@@@@@@@@@@@@@@@@@@@@@@++++....        ",
"        ....++++@@@@++++@@@@@@@@@@@@@@@@@@@@@@@@++++....        ",
"        ....++++@@@@++++@@@@@@@@@@@@@@@@@@@@@@@@++++....        ",
"        ....++++@@@@++++@@@@@@@@@@@@@@@@@@@@@@@@++++....        ",
"    ....++++@@@@@@@@@@@@@@@@@@@@@@@@@@@@++++@@@@@@@@....        ",
"    ....++++@@@@@@@@@@@@@@@@@@@@@@@@@@@@++++@@@@@@@@....        ",
"    ....++++@@@@@@@@@@@@@@@@@@@@@@@@@@@@++++@@@@@@@@....        ",
"    ....++++@@@@@@@@@@@@@@@@@@@@@@@@@@@@++++@@@@@@@@....        ",
"    ....++++@@@@++++@@@@@@@@@@@@@@@@@@@@@@@@++++....++++....    ",
"    ....++++@@@@++++@@@@@@@@@@@@@@@@@@@@@@@@++++....++++....    ",
"    ....++++@@@@++++@@@@@@@@@@@@@@@@@@@@@@@@++++....++++....    ",
"    ....++++@@@@++++@@@@@@@@@@@@@@@@@@@@@@@@++++....++++....    ",
"....++++++++....@@@@@@@@@@@@@@@@@@@@@@@@@@@@@@@@@@@@++++####    ",
"....++++++++....@@@@@@@@@@@@@@@@@@@@@@@@@@@@@@@@@@@@++++####    ",
"....++++++++....@@@@@@@@@@@@@@@@@@@@@@@@@@@@@@@@@@@@++++####    ",
"....++++++++....@@@@@@@@@@@@@@@@@@@@@@@@@@@@@@@@@@@@++++####    ",
"####....++++....++++@@@@....@@@@@@@@@@@@@@@@@@@@++++++++....####",
"####....++++....++++@@@@....@@@@@@@@@@@@@@@@@@@@++++++++....####",
"####....++++....++++@@@@....@@@@@@@@@@@@@@@@@@@@++++++++....####",
"####....++++....++++@@@@....@@@@@@@@@@@@@@@@@@@@++++++++....####",
"####....++++++++........++++@@@@@@@@++++@@@@++++++++++++....####",
"####....++++++++........++++@@@@@@@@++++@@@@++++++++++++....####",
"####....++++++++........++++@@@@@@@@++++@@@@++++++++++++....####",
"####....++++++++........++++@@@@@@@@++++@@@@++++++++++++....####",
"    ####....++++++++++++++++++++++++++++....++++++++........####",
"    ####....++++++++++++++++++++++++++++....++++++++........####",
"    ####....++++++++++++++++++++++++++++....++++++++........####",
"    ####....++++++++++++++++++++++++++++....++++++++........####",
"    ####....####++++++++....####++++....####....####....####    ",
"    ####....####++++++++....####++++....####....####....####    ",
"    ####....####++++++++....####++++....####....####....####    ",
"    ####....####++++++++....####++++....####....####....####    ",
"        ####....................########............####        ",
"        ####....................########............####        ",
"        ####....................########............####        ",
"        ####....................########............####        ",
"        ####........####............................####        ",
"        ####........####............................####        ",
"        ####........####............................####        ",
"        ####........####............................####        ",
"            ########........####............########            ",
"            ########........####............########            ",
"            ########........####............########            ",
"            ########........####............########            ",
"                    ########################                    ",
"                    ########################                    ",
"                    ########################                    ",
"                    ########################                    "};
