/* XPM */
static char * bush_xpm[] = {
"64 64 4 1",
" 	c #1EBC73",
".	c #0B8A8F",
"+	c #91DB69",
"@	c #0B5E65",
"                                                                ",
"                                                                ",
"                                                                ",
"                                                                ",
"                        ................                        ",
"                        ................                        ",
"                        ................                        ",
"                        ................                        ",
"                ........    ++++++++    ........                ",
"                ........    ++++++++    ........                ",
"                ........    ++++++++    ........                ",
"                ........    ++++++++    ........                ",
"            ....    ++++++++++++++++++++++++    ....            ",
"            ....    ++++++++++++++++++++++++    ....            ",
"            ....    ++++++++++++++++++++++++    ....            ",
"            ....    ++++++++++++++++++++++++    ....            ",
"        ....    ++++    ++++++++++++++++++++++++    ....        ",
"        ....    ++++    ++++++++++++++++++++++++    ....        ",
"        ....    ++++    ++++++++++++++++++++++++    ....        ",
"        ....    ++++    ++++++++++++++++++++++++    ....        ",
"    ....    ++++++++++++++++++++++++++++    ++++++++....        ",
"    ....    ++++++++++++++++++++++++++++    ++++++++....        ",
"    ....    ++++++++++++++++++++++++++++    ++++++++....        ",
"    ....    ++++++++++++++++++++++++++++    ++++++++....        ",
"    ....    ++++    ++++++++++++++++++++++++    ....    ....    ",
"    ....    ++++    ++++++++++++++++++++++++    ....    ....    ",
"    ....    ++++    ++++++++++++++++++++++++    ....    ....    ",
"    ....    ++++    ++++++++++++++++++++++++    ....    ....    ",
"....        ....++++++++++++++++++++++++++++++++++++    @@@@    ",
"....        ....++++++++++++++++++++++++++++++++++++    @@@@    ",
"....        ....++++++++++++++++++++++++++++++++++++    @@@@    ",
"....        ....++++++++++++++++++++++++++++++++++++    @@@@    ",
"@@@@....    ....    ++++....++++++++++++++++++++        ....@@@@",
"@@@@....    ....    ++++....++++++++++++++++++++        ....@@@@",
"@@@@....    ....    ++++....++++++++++++++++++++        ....@@@@",
"@@@@....    ....    ++++....++++++++++++++++++++        ....@@@@",
"@@@@....        ........    ++++++++    ++++            ....@@@@",
"@@@@....        ........    ++++++++    ++++            ....@@@@",
"@@@@....        ........    ++++++++    ++++            ....@@@@",
"@@@@....        ........    ++++++++    ++++            ....@@@@",
"    @@@@....                            ....        ........@@@@",
"    @@@@....                            ....        ........@@@@",
"    @@@@....                            ....        ........@@@@",
"    @@@@....                            ....        ........@@@@",
"    @@@@....@@@@        ....@@@@    ....@@@@....@@@@....@@@@    ",
"    @@@@....@@@@        ....@@@@    ....@@@@....@@@@....@@@@    ",
"    @@@@....@@@@        ....@@@@    ....@@@@....@@@@....@@@@    ",
"    @@@@....@@@@        ....@@@@    ....@@@@....@@@@....@@@@    ",
"        @@@@....................@@@@@@@@............@@@@        ",
"        @@@@....................@@@@@@@@............@@@@        ",
"        @@@@....................@@@@@@@@............@@@@        ",
"        @@@@....................@@@@@@@@............@@@@        ",
"        @@@@........@@@@............................@@@@        ",
"        @@@@........@@@@............................@@@@        ",
"        @@@@........@@@@............................@@@@        ",
"        @@@@........@@@@............................@@@@        ",
"            @@@@@@@@........@@@@............@@@@@@@@            ",
"            @@@@@@@@........@@@@............@@@@@@@@            ",
"            @@@@@@@@........@@@@............@@@@@@@@            ",
"            @@@@@@@@........@@@@............@@@@@@@@            ",
"                    @@@@@@@@@@@@@@@@@@@@@@@@                    ",
"                    @@@@@@@@@@@@@@@@@@@@@@@@                    ",
"                    @@@@@@@@@@@@@@@@@@@@@@@@                    ",
"                    @@@@@@@@@@@@@@@@@@@@@@@@                    "};
