/* XPM */
static char * exit_xpm[] = {
"64 64 5 1",
" 	c #E6904E",
".	c #CD683D",
"+	c #9E4539",
"@	c #7A3045",
"#	c #57293F",
"                                  ....                          ",
"                                  ....                          ",
"                                  ....                          ",
"                                  ....                          ",
"             ....             ....++++.....    ....             ",
"             ....             ....++++.....    ....             ",
"             ....             ....++++.....    ....             ",
"             ....             ....++++.....    ....             ",
"             ....             ....++++.....    ....             ",
"         ....@@@@+++++++++++++++++@@@@+++++++++@@@@++++.....    ",
"         ....@@@@+++++++++++++++++@@@@+++++++++@@@@++++.....    ",
"         ....@@@@+++++++++++++++++@@@@+++++++++@@@@++++.....    ",
"         ....@@@@+++++++++++++++++@@@@+++++++++@@@@++++.....    ",
".........++++@@@@@@@@##########################@@@@+++++++++....",
".........++++@@@@@@@@##########################@@@@+++++++++....",
".........++++@@@@@@@@##########################@@@@+++++++++....",
".........++++@@@@@@@@##########################@@@@+++++++++....",
".........++++@@@@##################################@@@@+++++....",
".........++++@@@@##################################@@@@+++++....",
".........++++@@@@##################################@@@@+++++....",
".........++++@@@@##################################@@@@+++++....",
".........++++##########################################+++++++++",
".........++++##########################################+++++++++",
".........++++##########################################+++++++++",
".........++++##########################################+++++++++",
".........++++##########################################+++++++++",
"....+++++@@@@##########################################@@@@@++++",
"....+++++@@@@##########################################@@@@@++++",
"....+++++@@@@##########################################@@@@@++++",
"....+++++@@@@##########################################@@@@@++++",
"....+++++@@@@##########################################@@@@@++++",
"....+++++@@@@##########################################@@@@@++++",
"....+++++@@@@##########################################@@@@@++++",
"....+++++@@@@##########################################@@@@@++++",
"....+++++############@@@@@@@@@@@@@@@@@@@@@@@@@@#############++++",
"....+++++############@@@@@@@@@@@@@@@@@@@@@@@@@@#############++++",
"....+++++############@@@@@@@@@@@@@@@@@@@@@@@@@@#############++++",
"....+++++############@@@@@@@@@@@@@@@@@@@@@@@@@@#############++++",
"....+++++########@@@@@@@@@@@@@@@@@@@@@@@@@@@@@@@@@@#########++++",
"....+++++########@@@@@@@@@@@@@@@@@@@@@@@@@@@@@@@@@@#########++++",
"....+++++########@@@@@@@@@@@@@@@@@@@@@@@@@@@@@@@@@@#########++++",
"....+++++########@@@@@@@@@@@@@@@@@@@@@@@@@@@@@@@@@@#########++++",
"....+++++########@@@@@@@@@@@@@@@@@@@@@@@@@@@@@@@@@@#########++++",
"++++@@@@@####@@@@@@@@++++++++++++++++++++++++++@@@@@@@@#####@@@@",
"++++@@@@@####@@@@@@@@++++++++++++++++++++++++++@@@@@@@@#####@@@@",
"++++@@@@@####@@@@@@@@++++++++++++++++++++++++++@@@@@@@@#####@@@@",
"++++@@@@@####@@@@@@@@++++++++++++++++++++++++++@@@@@@@@#####@@@@",
"++++@@@@@@@@@++++..................................++++@@@@@@@@@",
"++++@@@@@@@@@++++..................................++++@@@@@@@@@",
"++++@@@@@@@@@++++..................................++++@@@@@@@@@",
"++++@@@@@@@@@++++..................................++++@@@@@@@@@",
"++++@@@@@++++....                                  ....+++++@@@@",
"++++@@@@@++++....                                  ....+++++@@@@",
"++++@@@@@++++....                                  ....+++++@@@@",
"++++@@@@@++++....                                  ....+++++@@@@",
"@@@@+++++....                                          .....++++",
"@@@@+++++....                                          .....++++",
"@@@@+++++....                                          .....++++",
"@@@@+++++....                                          .....++++",
"@@@@+++++....                                          .....++++",
".........                                                   ....",
".........                                                   ....",
".........                                                   ....",
".........                                                   ...."};
