/* XPM */
static char * floor_xpm[] = {
"64 64 2 1",
" 	c #1EBC73",
".	c #0B8A8F",
"                                                                ",
"                                                                ",
"                                                                ",
"                                                                ",
"                                                                ",
"                                                                ",
"                                                                ",
"                                                                ",
"                                                                ",
"                                                                ",
"                                                                ",
"                                                                ",
"                                        ........                ",
"                                        ........                ",
"                                        ........                ",
"                                        ........                ",
"                                    ....        ....            ",
"                                    ....        ....            ",
"                                    ....        ....            ",
"                                    ....        ....            ",
"                                    ........                    ",
"                                    ........                    ",
"                                    ........                    ",
"                                    ........                    ",
"                                ....        ....                ",
"                                ....        ....                ",
"                                ....        ....                ",
"                                ....        ....                ",
"                                                                ",
"                                                                ",
"                                                                ",
"                                                                ",
"                                                                ",
"                                                                ",
"                                                                ",
"                                                                ",
"                ........                                        ",
"                ........                                        ",
"                ........                                        ",
"                ........                                        ",
"            ....        ........                                ",
"            ....        ........                                ",
"            ....        ........                                ",
"            ....        ........                                ",
"            ....        ....    ....                            ",
"            ....        ....    ....                            ",
"            ....        ....    ....                            ",
"            ....        ....    ....                            ",
"                                                                ",
"                                                                ",
"                                                                ",
"                                                                ",
"                                                                ",
"                                                                ",
"                                                                ",
"                                                                ",
"                                                                ",
"                                                                ",
"                                                                ",
"                                                                ",
"                                                                ",
"                                                                ",
"                                                                ",
"                                                                "};
