/* XPM */
static char * milk_xpm[] = {
"64 64 12 1",
" 	c None",
".	c #9E4539",
"+	c #E6904E",
"@	c #FBB954",
"#	c #7F708A",
"$	c #7A3045",
"%	c #CD683D",
"&	c #694F62",
"*	c #9BABB2",
"=	c #C7DCD0",
"-	c #FFFFFF",
";	c #E83B3B",
"                                                                ",
"                                                                ",
"                                                                ",
"                                                                ",
"                        ................                        ",
"                        ................                        ",
"                        ................                        ",
"                        ................                        ",
"                    ....++++@@@@@@@@++++....                    ",
"                    ....++++@@@@@@@@++++....                    ",
"                    ....++++@@@@@@@@++++....                    ",
"                    ....++++@@@@@@@@++++....                    ",
"                ####....@@@@@@@@@@@@@@@@....####                ",
"                ####....@@@@@@@@@@@@@@@@....####                ",
"                ####....@@@@@@@@@@@@@@@@....####                ",
"                ####....@@@@@@@@@@@@@@@@....####                ",
"                ####$$$$%%%%++++++++%%%%$$$$####                ",
"                ####$$$$%%%%++++++++%%%%$$$$####                ",
"                ####$$$$%%%%++++++++%%%%$$$$####                ",
"                ####$$$$%%%%++++++++%%%%$$$$####                ",
"                &&&&****$$$$$$$$$$$$$$$$****&&&&                ",
"                &&&&****$$$$$$$$$$$$$$$$****&&&&                ",
"                &&&&****$$$$$$$$$$$$$$$$****&&&&                ",
"                &&&&****$$$$$$$$$$$$$$$$****&&&&                ",
"            ####====####================####====####            ",
"            ####====####================####====####            ",
"            ####====####================####====####            ",
"            ####====####================####====####            ",
"        ####====----====####********####====----====####        ",
"        ####====----====####********####====----====####        ",
"        ####====----====####********####====----====####        ",
"        ####====----====####********####====----====####        ",
"        ####----------------------------------------####        ",
"        ####----------------------------------------####        ",
"        ####----------------------------------------####        ",
"        ####----------------------------------------####        ",
"        ####--------;;;;;;;;--------;;;;;;;;--------####        ",
"        ####--------;;;;;;;;--------;;;;;;;;--------####        ",
"        ####--------;;;;;;;;--------;;;;;;;;--------####        ",
"        ####--------;;;;;;;;--------;;;;;;;;--------####        ",
"        ####--------;;;;----;;;;;;;;----;;;;--------####        ",
"        ####--------;;;;----;;;;;;;;----;;;;--------####        ",
"        ####--------;;;;----;;;;;;;;----;;;;--------####        ",
"        ####--------;;;;----;;;;;;;;----;;;;--------####        ",
"        &&&&====----;;;;----------------;;;;----====&&&&        ",
"        &&&&====----;;;;----------------;;;;----====&&&&        ",
"        &&&&====----;;;;----------------;;;;----====&&&&        ",
"        &&&&====----;;;;----------------;;;;----====&&&&        ",
"            &&&&====;;;;----------------;;;;====&&&&            ",
"            &&&&====;;;;----------------;;;;====&&&&            ",
"            &&&&====;;;;----------------;;;;====&&&&            ",
"            &&&&====;;;;----------------;;;;====&&&&            ",
"                &&&&========--------========&&&&                ",
"                &&&&========--------========&&&&                ",
"                &&&&========--------========&&&&                ",
"                &&&&========--------========&&&&                ",
"                    &&&&&&&&&&&&&&&&&&&&&&&&                    ",
"                    &&&&&&&&&&&&&&&&&&&&&&&&                    ",
"                    &&&&&&&&&&&&&&&&&&&&&&&&                    ",
"                    &&&&&&&&&&&&&&&&&&&&&&&&                    ",
"                                                                ",
"                                                                ",
"                                                                ",
"                                                                "};
