/* XPM */
static char * player_xpm[] = {
"64 64 18 1",
" 	c None",
".	c #9E4539",
"+	c #AE2334",
"@	c #FB6B1D",
"#	c #F79617",
"$	c #F9C22B",
"%	c #7A3045",
"&	c #E6904E",
"*	c #E83B3B",
"=	c #1EBC73",
"-	c #FBB954",
";	c #239063",
">	c #7F708A",
",	c #CD683D",
"'	c #9BABB2",
")	c #C7DCD0",
"!	c #FFFFFF",
"~	c #694F62",
"                                                                ",
"                                                                ",
"                                                                ",
"                                                                ",
"                                    ................            ",
"                                    ................            ",
"                                    ................            ",
"                                    ................            ",
"                                ....++++@@@@####$$$$%%%%        ",
"                                ....++++@@@@####$$$$%%%%        ",
"                                ....++++@@@@####$$$$%%%%        ",
"                                ....++++@@@@####$$$$%%%%        ",
"                            ....&&&&++++****@@@@####====%%%%    ",
"                            ....&&&&++++****@@@@####====%%%%    ",
"                            ....&&&&++++****@@@@####====%%%%    ",
"                            ....&&&&++++****@@@@####====%%%%    ",
"                        ....&&&&----&&&&++++****====;;;;%%%%    ",
"                        ....&&&&----&&&&++++****====;;;;%%%%    ",
"                        ....&&&&----&&&&++++****====;;;;%%%%    ",
"                        ....&&&&----&&&&++++****====;;;;%%%%    ",
"                    >>>>,,,,----....,,,,,,,,++++++++++++%%%%    ",
"                    >>>>,,,,----....,,,,,,,,++++++++++++%%%%    ",
"                    >>>>,,,,----....,,,,,,,,++++++++++++%%%%    ",
"                    >>>>,,,,----....,,,,,,,,++++++++++++%%%%    ",
"                >>>>>>>>,,,,....&&&&----&&&&----&&&&,,,,%%%%    ",
"                >>>>>>>>,,,,....&&&&----&&&&----&&&&,,,,%%%%    ",
"                >>>>>>>>,,,,....&&&&----&&&&----&&&&,,,,%%%%    ",
"                >>>>>>>>,,,,....&&&&----&&&&----&&&&,,,,%%%%    ",
"            >>>>''''>>>>....,,,,----&&&&&&&&,,,,,,,,%%%%        ",
"            >>>>''''>>>>....,,,,----&&&&&&&&,,,,,,,,%%%%        ",
"            >>>>''''>>>>....,,,,----&&&&&&&&,,,,,,,,%%%%        ",
"            >>>>''''>>>>....,,,,----&&&&&&&&,,,,,,,,%%%%        ",
"        >>>>''''))))))))>>>>,,,,&&&&&&&&,,,,....%%%%            ",
"        >>>>''''))))))))>>>>,,,,&&&&&&&&,,,,....%%%%            ",
"        >>>>''''))))))))>>>>,,,,&&&&&&&&,,,,....%%%%            ",
"        >>>>''''))))))))>>>>,,,,&&&&&&&&,,,,....%%%%            ",
"    >>>>''''))))!!!!!!!!))))~~~~,,,,........%%%%                ",
"    >>>>''''))))!!!!!!!!))))~~~~,,,,........%%%%                ",
"    >>>>''''))))!!!!!!!!))))~~~~,,,,........%%%%                ",
"    >>>>''''))))!!!!!!!!))))~~~~,,,,........%%%%                ",
"    >>>>))))!!!!!!!!))))''''''''~~~~~~~~~~~~                    ",
"    >>>>))))!!!!!!!!))))''''''''~~~~~~~~~~~~                    ",
"    >>>>))))!!!!!!!!))))''''''''~~~~~~~~~~~~                    ",
"    >>>>))))!!!!!!!!))))''''''''~~~~~~~~~~~~                    ",
"    ~~~~!!!!!!!!))))''''''''>>>>>>>>~~~~                        ",
"    ~~~~!!!!!!!!))))''''''''>>>>>>>>~~~~                        ",
"    ~~~~!!!!!!!!))))''''''''>>>>>>>>~~~~                        ",
"    ~~~~!!!!!!!!))))''''''''>>>>>>>>~~~~                        ",
"    ~~~~''''))))''''''''>>>>>>>>~~~~                            ",
"    ~~~~''''))))''''''''>>>>>>>>~~~~                            ",
"    ~~~~''''))))''''''''>>>>>>>>~~~~                            ",
"    ~~~~''''))))''''''''>>>>>>>>~~~~                            ",
"        ~~~~''''''''>>>>>>>>~~~~                                ",
"        ~~~~''''''''>>>>>>>>~~~~                                ",
"        ~~~~''''''''>>>>>>>>~~~~                                ",
"        ~~~~''''''''>>>>>>>>~~~~                                ",
"            ~~~~~~~~~~~~~~~~                                    ",
"            ~~~~~~~~~~~~~~~~                                    ",
"            ~~~~~~~~~~~~~~~~                                    ",
"            ~~~~~~~~~~~~~~~~                                    ",
"                                                                ",
"                                                                ",
"                                                                ",
"                                                                "};
